<svg width="100" height="100" viewBox="0 0 100 100" fill="none" xmlns="http://www.w3.org/2000/svg">
<circle cx="50" cy="50" r="50" fill="#201E2B"/>
<path d="M12.76 51.32L13.12 48.88C19.12 46.6933 23.9067 44.36 27.48 41.88L28.68 42.32L29.2 45.04C26.1067 46.8 22.16 48.4 17.36 49.84L17.28 50.36C21.84 51.9333 25.2933 53.5333 27.64 55.16L26.28 57.72L25.04 58.16C23.7333 56.8533 22.0933 55.68 20.12 54.64C18.1733 53.6 15.72 52.4933 12.76 51.32ZM32.92 65.92C32.8667 66.0533 32.7067 66.12 32.44 66.12C31.8533 66.12 31.3733 65.8267 31 65.24C36.36 52.3867 40.96 41.76 44.8 33.36L48.12 32.48L49.4 33.52C46.76 37.7333 44.56 41.6133 42.8 45.16C41.04 48.68 39.7867 51.2133 39.04 52.76C38.2933 54.3067 37.2267 56.6 35.84 59.64C34.4533 62.6533 33.48 64.7467 32.92 65.92ZM64.6384 35.68C64.5051 37.0933 64.4384 38.5867 64.4384 40.16C64.4384 46.64 65.6384 54.3333 68.0384 63.24C67.9584 63.2933 67.8518 63.3333 67.7184 63.36C67.0251 63.36 66.5051 63.16 66.1584 62.76C65.2518 60.84 64.2651 58.0133 63.1984 54.28C61.3851 54.5733 59.6918 54.72 58.1184 54.72C56.5718 54.72 55.4918 54.6933 54.8784 54.64C53.6251 57.2533 52.2251 59.96 50.6784 62.76C50.1984 63.16 49.7051 63.36 49.1984 63.36C48.6918 63.36 48.4384 63.32 48.4384 63.24C49.4518 61.24 50.7851 58.2667 52.4384 54.32C52.1184 54.2667 51.6118 54.16 50.9184 54C50.5184 53.5733 50.3184 52.9867 50.3184 52.24C50.3184 52.0533 50.3584 51.96 50.4384 51.96C50.5184 51.96 50.6784 52 50.9184 52.08C51.4784 52.24 52.2251 52.3733 53.1584 52.48C55.7184 46.2133 57.4918 41.1333 58.4784 37.24L62.8784 34.92C63.6251 34.92 64.2118 35.1733 64.6384 35.68ZM55.8384 52.6C58.3451 52.5467 60.5718 52.24 62.5184 51.68C61.4251 47.5467 60.7318 44.0267 60.4384 41.12C58.9184 45.3067 57.3851 49.1333 55.8384 52.6ZM87.7166 48.72L87.3566 51.16C81.3566 53.3467 76.5699 55.68 72.9966 58.16L71.7966 57.72L71.2766 55C74.3699 53.24 78.3166 51.64 83.1166 50.2L83.1966 49.68C78.6366 48.1067 75.1832 46.5067 72.8366 44.88L74.1966 42.32L75.4366 41.88C76.7432 43.1867 78.3699 44.36 80.3166 45.4C82.2899 46.44 84.7566 47.5467 87.7166 48.72Z" fill="white"/>
</svg>
